<svg width="37" height="37" viewBox="0 0 37 37" fill="none" xmlns="http://www.w3.org/2000/svg">
<path d="M28.4702 25.713L27.5463 25.3303V25.3303L28.4702 25.713ZM22.6298 31.5534L23.0125 32.4773L22.6298 31.5534ZM10.8691 29.2141L11.5763 28.507H11.5763L10.8691 29.2141ZM8.52981 25.713L9.45369 25.3303L8.52981 25.713ZM23.8073 9.32043L24.4406 10.0943L23.8073 9.32043ZM23.9813 9.31788L24.6141 8.54361L23.9813 9.31788ZM29.2665 22.349L28.2917 22.1258L29.2665 22.349ZM29.2627 22.3736L28.2654 22.3003L29.2627 22.3736ZM20.2707 13.3464L19.321 13.6596L20.2707 13.3464ZM20.5532 13.3733L19.6788 12.8881L20.5532 13.3733ZM15.1764 4.71089L15.8359 5.46262L15.1764 4.71089ZM14.517 3.95915C13.5606 4.79815 6.70834 11.1583 6.70834 21.5832H8.70834C8.70834 12.0449 15.0051 6.19142 15.8359 5.46262L14.517 3.95915ZM21.2204 13.0332C19.4987 7.81207 16.6896 4.66094 16.0959 4.03364L14.6433 5.40844C15.1172 5.90912 17.7227 8.81266 19.321 13.6596L21.2204 13.0332ZM21.4276 13.8585C22.6735 11.6131 24.1219 10.3551 24.4406 10.0943L23.1739 8.54657C22.7288 8.91083 21.0845 10.3547 19.6788 12.8881L21.4276 13.8585ZM23.3484 10.0922C23.9397 10.5755 28.2917 14.3788 28.2917 21.4925H30.2917C30.2917 13.5007 25.4006 9.1864 24.6141 8.54361L23.3484 10.0922ZM28.2917 21.4925V21.5832H30.2917V21.4925H28.2917ZM28.2917 21.5832V22.1249H30.2917V21.5832H28.2917ZM28.2917 22.1249L28.2917 22.1258L30.2412 22.5723C30.2744 22.4275 30.2917 22.2776 30.2917 22.1249H28.2917ZM28.2654 22.3003C28.189 23.3407 27.9467 24.3637 27.5463 25.3303L29.3941 26.0957C29.8762 24.9317 30.168 23.6996 30.26 22.4468L28.2654 22.3003ZM27.5463 25.3303C27.0543 26.5183 26.333 27.5977 25.4238 28.507L26.838 29.9212C27.9329 28.8262 28.8015 27.5263 29.3941 26.0957L27.5463 25.3303ZM25.4238 28.507C24.5145 29.4162 23.4351 30.1374 22.2471 30.6295L23.0125 32.4773C24.4431 31.8847 25.743 31.0161 26.838 29.9212L25.4238 28.507ZM22.2471 30.6295C21.0591 31.1216 19.7859 31.3749 18.5 31.3749V33.3749C20.0485 33.3749 21.5819 33.0699 23.0125 32.4773L22.2471 30.6295ZM18.5 31.3749C17.2142 31.3749 15.9409 31.1216 14.7529 30.6295L13.9875 32.4773C15.4182 33.0699 16.9515 33.3749 18.5 33.3749V31.3749ZM14.7529 30.6295C13.5649 30.1374 12.4855 29.4162 11.5763 28.507L10.162 29.9212C11.257 31.0161 12.5569 31.8847 13.9875 32.4773L14.7529 30.6295ZM11.5763 28.507C10.667 27.5977 9.94577 26.5183 9.45369 25.3303L7.60593 26.0957C8.19852 27.5263 9.06708 28.8262 10.162 29.9212L11.5763 28.507ZM9.45369 25.3303C8.96161 24.1423 8.70834 22.8691 8.70834 21.5832H6.70834C6.70834 23.1317 7.01334 24.6651 7.60593 26.0957L9.45369 25.3303ZM24.4406 10.0943C24.1519 10.3306 23.6917 10.3728 23.3484 10.0922L24.6141 8.54361C24.1669 8.17806 23.5666 8.22522 23.1739 8.54657L24.4406 10.0943ZM28.2917 22.1258C28.2798 22.1775 28.2701 22.2361 28.2654 22.3003L30.26 22.4468C30.2565 22.4945 30.2494 22.5367 30.2412 22.5723L28.2917 22.1258ZM19.321 13.6596C19.6348 14.6109 20.9381 14.7406 21.4276 13.8585L19.6788 12.8881C20.0388 12.2393 20.9902 12.3352 21.2204 13.0332L19.321 13.6596ZM15.8359 5.46262C15.4778 5.77679 14.9488 5.73128 14.6433 5.40844L16.0959 4.03364C15.6844 3.59888 14.9909 3.54335 14.517 3.95915L15.8359 5.46262Z" fill="#EC1C2D"/>
<path d="M17.9532 17.3628L18.5652 18.1537L17.9532 17.3628ZM12.3637 25.5913L11.3685 25.494L11.3685 25.494L12.3637 25.5913ZM19.047 17.3629L18.4351 18.1537V18.1537L19.047 17.3629ZM24.6363 25.5913L23.641 25.6886L23.641 25.6887L24.6363 25.5913ZM24.6374 25.6039L23.6409 25.6865C23.6412 25.6912 23.6417 25.696 23.6421 25.7007L24.6374 25.6039ZM12.3626 25.6038L13.3579 25.7006C13.3584 25.6959 13.3588 25.6911 13.3592 25.6864L12.3626 25.6038ZM17.3412 16.572C16.5922 17.1515 15.2246 18.2978 13.9873 19.8158C12.7606 21.3206 11.5844 23.2851 11.3685 25.494L13.359 25.6886C13.5198 24.0434 14.4219 22.448 15.5375 21.0794C16.6425 19.7238 17.8812 18.683 18.5652 18.1537L17.3412 16.572ZM19.659 16.572C18.9734 16.0414 18.0269 16.0414 17.3412 16.572L18.5652 18.1537C18.5515 18.1643 18.528 18.1741 18.5001 18.1741C18.4722 18.1741 18.4487 18.1643 18.4351 18.1537L19.659 16.572ZM25.6316 25.494C25.4156 23.2851 24.2395 21.3206 23.0129 19.8158C21.7756 18.2979 20.408 17.1515 19.659 16.572L18.4351 18.1537C19.119 18.683 20.3577 19.7238 21.4626 21.0794C22.5782 22.448 23.4802 24.0434 23.641 25.6886L25.6316 25.494ZM25.634 25.5212C25.6333 25.5123 25.6325 25.5032 25.6316 25.494L23.641 25.6887C23.641 25.6878 23.6409 25.6871 23.6409 25.6865L25.634 25.5212ZM23.6421 25.7007C23.6583 25.8674 23.6667 26.0367 23.6667 26.2083H25.6667C25.6667 25.972 25.6552 25.738 25.6327 25.507L23.6421 25.7007ZM23.6667 26.2083C23.6667 29.0618 21.3535 31.375 18.5 31.375V33.375C22.4581 33.375 25.6667 30.1663 25.6667 26.2083H23.6667ZM18.5 31.375C15.6465 31.375 13.3333 29.0618 13.3333 26.2083H11.3333C11.3333 30.1663 14.542 33.375 18.5 33.375V31.375ZM13.3333 26.2083C13.3333 26.0367 13.3417 25.8674 13.3579 25.7006L11.3673 25.507C11.3448 25.738 11.3333 25.9719 11.3333 26.2083H13.3333ZM11.3685 25.494C11.3676 25.5031 11.3668 25.5121 11.366 25.5212L13.3592 25.6864C13.3591 25.6871 13.359 25.6879 13.359 25.6886L11.3685 25.494Z" fill="#EC1C2D"/>
</svg>
