<svg width="42" height="36" viewBox="0 0 42 36" fill="none" xmlns="http://www.w3.org/2000/svg">
<path d="M7.74194 6.45161H1.16129C0.516129 6.45161 0 6.96774 0 7.6129V19.3548C0 20.129 0.516129 20.6452 1.16129 20.6452H7.74194C9.93549 20.6452 11.6129 22.3226 11.6129 24.5161V10.3226C11.6129 8.12903 9.93549 6.45161 7.74194 6.45161Z" fill="#EC1C2D"/>
<path d="M23.3549 6.45161H16.7742C14.5807 6.45161 12.9033 8.12903 12.9033 10.3226V24.5161C12.9033 22.3226 14.5807 20.6452 16.7742 20.6452H23.3549C24 20.6452 24.5162 20.129 24.5162 19.4839V7.6129C24.5162 6.96774 24 6.45161 23.3549 6.45161Z" fill="#EC1C2D"/>
<path d="M41.1613 20.129L37.4193 12.6452C37.2903 5.67742 31.4838 0 24.5161 0C20.9032 0 17.5484 1.54839 15.0967 4.12903C15.6129 4 16.129 3.87097 16.7742 3.87097H23.3548C25.4193 3.87097 27.0967 5.54839 27.0967 7.6129V19.3548C27.0967 21.4194 25.4193 23.0968 23.3548 23.0968H16.7742C16 23.0968 15.4838 23.6129 15.4838 24.3871V32.129C15.4838 32.7742 15.8709 33.2903 16.5161 33.4194L29.4193 36C29.5484 36 29.5484 36 29.6774 36C29.9355 36 30.3225 35.871 30.4516 35.7419C30.7096 35.4839 30.9677 35.0968 30.9677 34.7097V29.5484H33.5484C35.7419 29.5484 37.4193 27.871 37.4193 25.6774V21.8064H40C40.3871 21.8064 40.9032 21.5484 41.1613 21.1613C41.4193 20.7742 41.2903 20.5161 41.1613 20.129Z" fill="#EC1C2D"/>
</svg>
