<svg xmlns="http://www.w3.org/2000/svg" viewBox="0 0 1073.41 113.7"><defs><style>.cls-1{fill:#e1251b;}</style></defs><g id="Capa_2" data-name="Capa 2"><g id="Capa_2-2" data-name="Capa 2"><path class="cls-1" d="M275.65,47c0,1.38,0,5.62-8.82,5.62H219v-20h47.82c8.82,0,8.82,4.23,8.82,5.63ZM219,69.71h47.82c4.19,0,6.12.61,7,1.1,1.59,1,2.4,3,2.4,6.12v6.95c0,3.07-.81,5.13-2.37,6.11-1.26.74-3.62,1.11-7,1.11H219Zm66.4-8.42c7.92-2.25,11.93-7.45,11.93-15.52V34.56c0-12.45-7.27-18.76-21.61-18.76H196.07v93.78h74c18.6,0,28-6.37,28-18.94V78.89c0-9.23-4.25-15.14-12.65-17.6"/><path class="cls-1" d="M391.63,71h-37l18.84-34.4ZM385.06,15.8H363.29l-53.07,93.78h23.59l10.68-20.11h57.07l11,20.11h26.27l-53.53-93.3Z"/><path class="cls-1" d="M542.21,65c0,1.82.24,6.26.71,13.17-2.26-2.34-5.19-5-8.74-8L469.55,16l-.27-.22H453.37v93.79h21.16V59c0-3.17-.21-7.14-.62-11.8a68.55,68.55,0,0,0,5.8,5.42l67.47,56.79.28.23h15.91V15.8H542.21Z"/><path class="cls-1" d="M682.11,90.4H613.54V34.1h68.57Zm-.46-74.6H614c-9.12,0-15.22,1.54-18.64,4.7s-5.11,9.07-5.11,18V86.9c0,8.92,1.67,14.8,5.11,18s9.52,4.7,18.64,4.7h67.65c9.13,0,15.21-1.54,18.63-4.7s5.12-9.06,5.12-18V38.48c0-8.91-1.68-14.79-5.12-18s-9.51-4.7-18.63-4.7"/><path class="cls-1" d="M755.87,33.39H803c3.91,0,5.69.52,6.45.94,1.49.89,2.22,2.68,2.22,5.44V50.89c0,2.77-.73,4.55-2.18,5.43-.8.43-2.57,1-6.49,1H755.87Zm56.74,41.48c14.36,0,21.63-6.32,21.63-18.77V34.57c0-12.46-7.27-18.77-21.63-18.77H732.94v93.79h22.93V74.87h19l36.77,34.45.28.27h33.72L803.18,74.87Z"/><polygon class="cls-1" points="851.97 34.1 894.16 34.1 894.16 109.59 917.45 109.59 917.45 34.1 959.82 34.1 959.82 15.79 851.97 15.79 851.97 34.1"/><polygon class="cls-1" points="1001.54 90.39 1001.54 69.53 1045.1 69.53 1045.1 51.94 1001.54 51.94 1001.54 33.39 1072.51 33.39 1072.51 15.79 978.25 15.79 978.25 109.59 1073.4 109.59 1073.4 90.39 1001.54 90.39"/><path class="cls-1" d="M76.12,55.28,91.9,12V55.27c2.32.06,4.69.16,7,.16,43.25,0,78.36-11.59,78.36-27.2S142.2,0,99,0,20.52,12.65,20.52,28.23C20.52,41,44,51.76,76.12,55.28Z"/><path class="cls-1" d="M74.94,58.5C33.29,59.17,0,71.57,0,86.76c0,12.63,23.1,23.35,54.86,26.94L74.94,58.5Z"/><path class="cls-1" d="M92,58.48V113.7c36.82-2.31,64.82-13,64.82-26.94s-28-26-64.82-28.28Z"/></g></g></svg>