<svg width="97" height="62" viewBox="0 0 97 62" fill="none" xmlns="http://www.w3.org/2000/svg">
<g clip-path="url(#clip0_5_66)">
<path d="M53.656 0C29.7623 0 10.3958 6.32652 10.3958 14.1714C10.3958 20.751 23.8937 26.234 42.2541 27.8367L49.7995 4.47074L51.1409 28.2585C51.9793 28.2585 52.8176 28.2585 53.7398 28.2585C77.6335 28.2585 97 21.932 97 14.0871C96.9162 6.41087 77.5497 0 53.656 0Z" fill="#EC1C2D"/>
<path d="M42.0026 28.6803C18.6958 28.9334 0 36.3565 0 45.551C0 53.3116 13.2463 59.8068 31.3552 61.8313L42.0026 28.6803Z" fill="#EC1C2D"/>
<path d="M51.057 28.9333L52.9015 62C72.1003 60.313 86.3526 53.5647 86.3526 45.551C86.4365 37.2844 71.178 30.3674 51.057 28.9333Z" fill="#EC1C2D"/>
</g>
<defs>
<clipPath id="clip0_5_66">
<rect width="97" height="62" fill="white"/>
</clipPath>
</defs>
</svg>
