<svg width="42" height="44" viewBox="0 0 42 44" fill="none" xmlns="http://www.w3.org/2000/svg">
<g filter="url(#filter0_d_17_150)">
<path fill-rule="evenodd" clip-rule="evenodd" d="M7.70732 0C6.72408 0 5.7811 0.421427 5.08585 1.17157C4.39059 1.92172 4 2.93913 4 4V32C4 33.0609 4.39059 34.0783 5.08585 34.8284C5.7811 35.5786 6.72408 36 7.70732 36H29.0244C29.1541 36 29.2839 35.986 29.4081 35.958C29.5842 35.986 29.7659 36 29.9512 36H33.6585C34.6418 36 35.5847 35.5786 36.28 34.8284C36.9753 34.0783 37.3659 33.0609 37.3659 32V8C37.3659 7.46957 37.1706 6.96086 36.8229 6.58579C36.4753 6.21071 36.0038 6 35.5122 6H33.6585C33.1669 6 32.6954 6.21071 32.3478 6.58579C32.0002 6.96086 31.8049 7.46957 31.8049 8C31.8049 8.53043 32.0002 9.03914 32.3478 9.41421C32.6954 9.78929 33.1669 10 33.6585 10V32H29.9512V4C29.9512 2.93913 29.5606 1.92172 28.8654 1.17157C28.1701 0.421427 27.2271 0 26.2439 0H7.70732ZM20.6829 8C20.6829 7.46957 20.8782 6.96086 21.2259 6.58579C21.5735 6.21071 22.045 6 22.5366 6H23.4634C23.955 6 24.4265 6.21071 24.7741 6.58579C25.1218 6.96086 25.3171 7.46957 25.3171 8C25.3171 8.53043 25.1218 9.03914 24.7741 9.41421C24.4265 9.78929 23.955 10 23.4634 10H22.5366C22.045 10 21.5735 9.78929 21.2259 9.41421C20.8782 9.03914 20.6829 8.53043 20.6829 8ZM20.6829 14C20.6829 13.4696 20.8782 12.9609 21.2259 12.5858C21.5735 12.2107 22.045 12 22.5366 12H23.4634C23.955 12 24.4265 12.2107 24.7741 12.5858C25.1218 12.9609 25.3171 13.4696 25.3171 14C25.3171 14.5304 25.1218 15.0391 24.7741 15.4142C24.4265 15.7893 23.955 16 23.4634 16H22.5366C22.045 16 21.5735 15.7893 21.2259 15.4142C20.8782 15.0391 20.6829 14.5304 20.6829 14ZM9.56098 22C9.56098 21.4696 9.75627 20.9609 10.1039 20.5858C10.4515 20.2107 10.923 20 11.4146 20H22.5366C23.0282 20 23.4997 20.2107 23.8473 20.5858C24.1949 20.9609 24.3902 21.4696 24.3902 22C24.3902 22.5304 24.1949 23.0391 23.8473 23.4142C23.4997 23.7893 23.0282 24 22.5366 24H11.4146C10.923 24 10.4515 23.7893 10.1039 23.4142C9.75627 23.0391 9.56098 22.5304 9.56098 22ZM9.56098 28C9.56098 27.4696 9.75627 26.9609 10.1039 26.5858C10.4515 26.2107 10.923 26 11.4146 26H22.5366C23.0282 26 23.4997 26.2107 23.8473 26.5858C24.1949 26.9609 24.3902 27.4696 24.3902 28C24.3902 28.5304 24.1949 29.0391 23.8473 29.4142C23.4997 29.7893 23.0282 30 22.5366 30H11.4146C10.923 30 10.4515 29.7893 10.1039 29.4142C9.75627 29.0391 9.56098 28.5304 9.56098 28ZM11.4146 6C10.923 6 10.4515 6.21071 10.1039 6.58579C9.75627 6.96086 9.56098 7.46957 9.56098 8V14C9.56098 14.5304 9.75627 15.0391 10.1039 15.4142C10.4515 15.7893 10.923 16 11.4146 16H16.9756C17.4672 16 17.9387 15.7893 18.2863 15.4142C18.634 15.0391 18.8293 14.5304 18.8293 14V8C18.8293 7.46957 18.634 6.96086 18.2863 6.58579C17.9387 6.21071 17.4672 6 16.9756 6H11.4146ZM13.2683 12V10H15.122V12H13.2683Z" fill="#EC1C2D"/>
<path d="M29.4866 35.4642L29.3918 35.4491L29.2981 35.4702C29.2115 35.4898 29.1187 35.5 29.0244 35.5H7.70732C6.86947 35.5 6.0575 35.1412 5.45256 34.4885C4.84644 33.8346 4.5 32.94 4.5 32V4C4.5 3.06 4.84644 2.16543 5.45256 1.51146C6.0575 0.858763 6.86947 0.5 7.70732 0.5H26.2439C27.0817 0.5 27.8937 0.858763 28.4987 1.51146C29.1048 2.16543 29.4512 3.06 29.4512 4V32V32.5H29.9512H33.6585H34.1585V32V10V9.5H33.6585C33.3123 9.5 32.9718 9.35195 32.7145 9.07433C32.456 8.79543 32.3049 8.40957 32.3049 8C32.3049 7.59043 32.456 7.20457 32.7145 6.92567C32.9718 6.64805 33.3123 6.5 33.6585 6.5H35.5122C35.8584 6.5 36.1989 6.64805 36.4562 6.92567C36.7147 7.20457 36.8659 7.59043 36.8659 8V32C36.8659 32.94 36.5194 33.8346 35.9133 34.4885C35.3084 35.1412 34.4964 35.5 33.6585 35.5H29.9512C29.791 35.5 29.6356 35.4879 29.4866 35.4642ZM20.8591 6.2459C20.4224 6.71715 20.1829 7.3487 20.1829 8C20.1829 8.6513 20.4224 9.28285 20.8591 9.7541C21.2971 10.2266 21.8996 10.5 22.5366 10.5H23.4634C24.1004 10.5 24.7029 10.2266 25.1409 9.7541C25.5776 9.28285 25.8171 8.6513 25.8171 8C25.8171 7.3487 25.5776 6.71715 25.1409 6.2459C24.7029 5.77338 24.1004 5.5 23.4634 5.5H22.5366C21.8996 5.5 21.2971 5.77338 20.8591 6.2459ZM20.8591 12.2459C20.4224 12.7171 20.1829 13.3487 20.1829 14C20.1829 14.6513 20.4224 15.2829 20.8591 15.7541C21.2971 16.2266 21.8996 16.5 22.5366 16.5H23.4634C24.1004 16.5 24.7029 16.2266 25.1409 15.7541C25.5776 15.2829 25.8171 14.6513 25.8171 14C25.8171 13.3487 25.5776 12.7171 25.1409 12.2459C24.7029 11.7734 24.1004 11.5 23.4634 11.5H22.5366C21.8996 11.5 21.2971 11.7734 20.8591 12.2459ZM9.73718 20.2459C9.30042 20.7171 9.06098 21.3487 9.06098 22C9.06098 22.6513 9.30042 23.2829 9.73718 23.7541C10.1751 24.2266 10.7776 24.5 11.4146 24.5H22.5366C23.1736 24.5 23.7761 24.2266 24.214 23.7541C24.6508 23.2829 24.8902 22.6513 24.8902 22C24.8902 21.3487 24.6508 20.7171 24.214 20.2459C23.7761 19.7734 23.1736 19.5 22.5366 19.5H11.4146C10.7776 19.5 10.1751 19.7734 9.73718 20.2459ZM9.73718 26.2459C9.30042 26.7171 9.06098 27.3487 9.06098 28C9.06098 28.6513 9.30042 29.2829 9.73718 29.7541C10.1751 30.2266 10.7776 30.5 11.4146 30.5H22.5366C23.1736 30.5 23.7761 30.2266 24.214 29.7541C24.6508 29.2829 24.8902 28.6513 24.8902 28C24.8902 27.3487 24.6508 26.7171 24.214 26.2459C23.7761 25.7734 23.1736 25.5 22.5366 25.5H11.4146C10.7776 25.5 10.1751 25.7734 9.73718 26.2459ZM11.4146 5.5C10.7776 5.5 10.1751 5.77338 9.73718 6.2459C9.30042 6.71715 9.06098 7.3487 9.06098 8V14C9.06098 14.6513 9.30042 15.2828 9.73718 15.7541C10.1751 16.2266 10.7776 16.5 11.4146 16.5H16.9756C17.6126 16.5 18.2151 16.2266 18.6531 15.7541C19.0898 15.2828 19.3293 14.6513 19.3293 14V8C19.3293 7.3487 19.0898 6.71715 18.6531 6.2459C18.2151 5.77338 17.6126 5.5 16.9756 5.5H11.4146ZM13.7683 11.5V10.5H14.622V11.5H13.7683Z" stroke="#EC1C2D"/>
</g>
<defs>
<filter id="filter0_d_17_150" x="0" y="0" width="41.3658" height="44" filterUnits="userSpaceOnUse" color-interpolation-filters="sRGB">
<feFlood flood-opacity="0" result="BackgroundImageFix"/>
<feColorMatrix in="SourceAlpha" type="matrix" values="0 0 0 0 0 0 0 0 0 0 0 0 0 0 0 0 0 0 127 0" result="hardAlpha"/>
<feOffset dy="4"/>
<feGaussianBlur stdDeviation="2"/>
<feComposite in2="hardAlpha" operator="out"/>
<feColorMatrix type="matrix" values="0 0 0 0 0 0 0 0 0 0 0 0 0 0 0 0 0 0 0.25 0"/>
<feBlend mode="normal" in2="BackgroundImageFix" result="effect1_dropShadow_17_150"/>
<feBlend mode="normal" in="SourceGraphic" in2="effect1_dropShadow_17_150" result="shape"/>
</filter>
</defs>
</svg>
