<svg width="36" height="36" viewBox="0 0 36 36" fill="none" xmlns="http://www.w3.org/2000/svg">
<g clip-path="url(#clip0_17_143)">
<path d="M18.3808 4.50527C18.2543 4.50176 18.1273 4.5 18 4.5C10.5442 4.5 4.5 10.5442 4.5 18C4.5 25.4558 10.5442 31.5 18 31.5C25.4558 31.5 31.5 25.4558 31.5 18C31.5 17.8727 31.4982 17.7457 31.4948 17.6192L35.4695 13.6445C35.816 15.0392 36 16.4981 36 18C36 27.9412 27.9412 36 18 36C8.05887 36 0 27.9412 0 18C0 8.05887 8.05887 0 18 0C19.5019 0 20.9608 0.183943 22.3555 0.53053L18.3808 4.50527Z" fill="#EC1C2D"/>
<path d="M9 17.9999C9 13.8063 11.8682 10.2826 15.75 9.28346V14.1019C14.405 14.88 13.5 16.3343 13.5 17.9999C13.5 20.4852 15.5147 22.4999 18 22.4999C19.6656 22.4999 21.1199 21.595 21.898 20.2499H26.7165C25.7173 24.1317 22.1936 27 18 27C13.0294 27 9 22.9705 9 17.9999Z" fill="#EC1C2D"/>
<path d="M31.5 4.5L29.25 0L22.5 6.75V10.318L17.534 15.284L20.716 18.466L25.6819 13.5H29.25L36 6.75L31.5 4.5Z" fill="#EC1C2D"/>
</g>
<defs>
<clipPath id="clip0_17_143">
<rect width="36" height="36" fill="white"/>
</clipPath>
</defs>
</svg>
